<?xml version="1.0" encoding="UTF-8"?>
<svg id="Layer_1" data-name="Layer 1" xmlns="http://www.w3.org/2000/svg" viewBox="0 0 681.03 766.96">
  <defs>
    <style>
      .cls-1 {
        fill: #158dfb;
      }

      .cls-2 {
        fill: #fdedf0;
      }

      .cls-3 {
        fill: #e8f2fd;
      }

      .cls-4 {
        fill: #a16ef9;
      }

      .cls-5 {
        fill: #fdf3e9;
      }

      .cls-6 {
        fill: #ecfcf5;
      }

      .cls-7 {
        fill: #fd5f6a;
      }

      .cls-8 {
        fill: #fda849;
      }

      .cls-9 {
        fill: #f6f1fd;
      }

      .cls-10 {
        fill: #6c3af9;
      }

      .cls-11 {
        fill: #54a1fc;
      }

      .cls-12 {
        fill: #fc8214;
      }

      .cls-13 {
        fill: #fcfcfc;
      }

      .cls-14 {
        fill: #52cfa2;
      }
    </style>
  </defs>
  <g>
    <path class="cls-1" d="M6.54,264.96c-.88,3.88.23,7.21,1.79,10.3,1.52,3.01,3.07,5.67,6.87,7.73l150.26,81.42,157.26,84.42c15.08,8.09,31.25,4.82,45.38-3.38,64.33-37.28,129.09-72.36,195.14-106.71l101.9-53.01c4.62-2.4,9.73-10.09,9.59-15.59.72-.36,1.59.27,1.62.84.02.36.05,1.63.76,1.95.86.39,2.07-1.25,2.1-2.08l1.59,2.51c-.51,8.2-4.82,15.2-12.67,19.25l-46.16,23.76c-1.45.74-2.36,1.29-2.46,2.55-1.63-.93-4.51.98-5.59,1.78l-100.46,52.22-4.51,2.51-80.67,44.2-2.71,1.76-50.23,28.2-3.88,1.92c-14.66,9.63-33.12,13.64-49.36,5.09l-45.33-23.87-3.57-2.12-97.35-52.44c-2.29-1.24-4.12-2.05-6.06-2.37-.74-.8-1.79-1.92-2.94-2.53l-98.26-52.58-4.24-2.32-52.84-28.89c-8.06-4.41-10.98-12.09-11.22-20.25.95.4,3.63.72,3.85-.12.55-2.09,1.56-3.34,2.39-4.16Z"/>
    <path class="cls-11" d="M67.96,220.67c1.64.85,2.88,1.25,4.47,2.6l-56.5,29.97c-4.88,2.53-7.94,7.5-9.4,11.72-.84.82-1.84,2.08-2.39,4.16-.22.83-2.9.52-3.85.12-.28-9.45,5.21-17.01,14.1-21.56l46.73-23.95c2.47-1.26,4.59-2.31,6.85-3.06Z"/>
    <path class="cls-11" d="M617.77,222.69l52.37,28.85c8.27,4.58,11.17,13.5,10.65,21.82l-1.59-2.51c-.03.84-1.24,2.48-2.1,2.08-.71-.32-.74-1.59-.76-1.95-.03-.57-.9-1.19-1.62-.84-.11-4.28-1.65-8.16-4.77-11.09-1.15-1.08-1.93-2.4-3.84-3.45l-53.94-30.1,5.59-2.82Z"/>
    <path class="cls-6" d="M166.85,373.27c-.68.85-1.72,1.53-3.05,2.05l-28.37,11.1c-9.86-8.79-24.74-9.91-34.99-1.68-3.49,2.8-5.31,6.87-5.2,10.78.11,3.85,2.18,7.88,5.79,10.47,9.6,6.9,22.7,6.65,32.38-.12l78.16,42.78c-5.34,6.87-3.88,14.63,2.39,19.43,9.96,7.63,23.91,6.96,33.63-1.48l87.41,41.86c-4.33,6.13-3.91,13.67,2.04,18.5,8.63,7.02,21.44,7.71,30.39,1.14,6.7-4.92,7.91-13.31,2.72-19.83l83.55-49.59c8.46,5.73,19.01,6.24,27.14.77,6.04-4.07,7.88-11.58,3.03-17.67l58.08-33.11c7.82,4.93,17.47,5.88,25.39,1.23,3.59-2.11,5.81-5.72,5.91-9.32s-1.56-6.99-4.73-9.33c-7.51-5.56-17.44-5.28-25.76-.58l-25.84-14.62c-1.53-.87-2.84-1.55-3.44-3.11l100.46-52.22,52.13,31.01c5.24,3.04,8.5,8.44,8.6,14.13.08,4.91-2.22,11.82-7.7,14.98l-178.54,102.98-118.98,68.93c-15.22,8.82-31.6,9.31-46.93.58l-60.55-34.49-127.11-71.77-118.15-66.62c-5.62-3.17-8.94-8.17-9.44-13.94-.48-5.54,2.27-12.15,7.75-15.2l51.36-28.49c1.08-.6,1.73-1.1,2.25-2.12l98.26,52.58Z"/>
    <path class="cls-3" d="M292.89,352.59l41.27,31.3c-2.1,2.03-2.59,3.94-3.52,5.57-2.78,4.84-2.24,10.5,1.85,14.99,10.42,11.44,32.87,8.97,38.53-2.16l.54-1.06c1.45-2.84,2.41-6.06,1.25-8.94l-2.59-6.45,74.16-38.51c9.89,9.11,24.57,10.21,35.73,3.34,7.97-4.91,10.06-14.14,4.47-22.35l52.71-28.59c8.13,5.39,17.89,5.52,25.75.79,3.39-2.04,5.28-5.61,5.42-8.95s-1.33-6.69-4.29-8.94c-7.73-5.89-17.88-6.09-26.24-1.25l-19.02-9.72,93.27-46.19,53.94,30.1c1.92,1.06,2.69,2.37,3.84,3.45.72,2.06-1.74,2.95-2.81,3.87-2.34,5.25,9,8.22,5.34,10.53l-2.22,1.4.04,2.61c0,.67-1.78,2.06-2.93,2.64l-49,24.69c-2.98,1.5-4.52,2.33-7.18,3.72l-54.36,28.44c-5.72,2.39-9.93,7.24-16.85,7.51-2.37,3.71-6.03,4.44-9.69,6.42l-77.73,42.01-16.9,9.26-40.27,22.64c-3.6,2.02-6.97,4.2-11.12,3.91-.67,4.21-7.18,7.49-12.65,7.15-4.22-.26-9.39,1.91-12.55,4.59-.83,1.1.16,3.45.55,4.77-6.31,2.86-13.75,4.45-20.55,3.64-.87-2.51-2.21-4.6-4.38-5.25-3.02-.89-4.79.09-6.85,3.1l-97.74-52.82-45.59-24.55c-4.71-2.54-11.03-4.45-14.79-8.18.09-1.78.24-5.83-2.1-5.91-.72.09-1.43,2.1-2.04,2.51-.67.44-2.13.56-3.34-.1l-44.64-24.56c-1.63-.9-1.76-3.17-4.94-3.2-1.85-.02-4.87-1.9-7-2.87-2.54-1.17-5.15-5.81-4.64-8.14.87-3.96,2.22-6.97,4.63-9.61l-4.81-10.22c-.77-1.63-2-2.94-3.51-2.78-1.09.11-3.14,2.42-2.3,3.46,2.78,3.47,5.27,8.88,4.74,10.69-.4,1.39-1.59,4.28-4.07,3.89-6.16-.97-12.7-2.44-18.29-4.79-.7-.82-1.26-3.25-2.41-3.37-1.46-.14-2.99.67-4.76.96-2.13-.41-3.86-5.51-3.24-7.52.75-2.41,4.42-.9,5.64-1.36,2.53-1-.15-4.12-1.52-4.94-3.12-1.86-4.11,2.75-5.77,3.22-2.53.71-5.8-1.56-8.51.74-2.84,2.41-5.76.63-8.37-.84l-14.02-7.92c-3.16-1.78-8.1-2.62-10.46-5.99l-1.97-8.67c-.5-2.21-1.48-3.69-3.91-3.73-2.06-.03-2.47,2.43-3.02,4.5-.75,2.85-4.84,1.45-6.76.63-1.56-3.09-2.67-6.42-1.79-10.3,1.46-4.21,4.52-9.19,9.4-11.72l56.5-29.97c1.46,1.24,4.7,1.76,7.14,3.02l83.25,43.04-26.32,11.13c-8.21-6.32-19.7-6.66-27.71-.36-2.82,2.22-4,5.37-3.88,8.49.4,9.94,16.91,14.82,29.01,8.31l58.52,36.04c-1.8,2.43-3.02,4.13-3.52,6.34-.6,2.67-.75,6.08.88,8.78,4.24,7.05,11.77,9.92,19.87,10.07,9.25.17,17.44-4.16,21.07-12.5l31.08.79,9.04.77c1.91.16,5.2-1.89,7.97-2.78l-47.85-1.88c-.44-3.64-1.36-5.94-3.39-8.65l29.03-16.29,59.42,30.13c12.88,6.53,26.26,7.56,40.57,4.2-.52,8.92-3.07,17.51-5.63,26.23-5.38.19-9.36,1.26-13.76,3.82l-38.35-28.95c-3.67-2.77-6.32-6.24-11.41-7.18"/>
    <path class="cls-11" d="M287.46,345.87c5.09.94,7.75,4.41,11.41,7.18l38.35,28.95c4.4-2.56,8.39-3.63,13.76-3.82,2.56-8.72,5.11-17.32,5.63-26.23l3.62-.85-5.12,27.15c4.99.91,8.59,2.72,12.51,5.05l74.61-38.89c-3.29-6.06-1.92-12.24,2.06-16.83l-15.83-9.66c.21-1.91,1.4-1.98,3.01-2.78l15.39,9.77c11.26-7.36,24.73-6.87,35.42.92l52.48-28.82c-2.82-4.11-2.77-8.82.42-13.15l-19.52-10.59c1.35.28,2.09-.98,3.25-1.56l19.02,9.72c8.36-4.85,18.51-4.64,26.24,1.25,2.96,2.25,4.43,5.52,4.29,8.94s-2.03,6.91-5.42,8.95c-7.86,4.72-17.62,4.6-25.75-.79l-52.71,28.59c5.6,8.21,3.5,17.45-4.47,22.35-11.15,6.87-25.84,5.76-35.73-3.34l-74.16,38.51,2.59,6.45c-.67.72-1.12,1.32-1.61,3.34-5.24-2.65-10.34-1.4-15.94.1-9.35,2.49-18.67-6.82-22.67,1.52-4.34-2.17.45-7.33-1.96-7.8.94-1.63,1.42-3.54,3.52-5.57l-41.27-31.3"/>
    <path class="cls-3" d="M252.57,315.53l-27.21,15.91c-9.03-5.96-20.2-6.79-30.12-.73l-58.87-36.18c3.29-3.57,3.8-7.3,1.78-11.72l22.9-8.48c1.95-.72,3.94-.9,5.03-3.14l86.49,44.34Z"/>
    <path class="cls-3" d="M426.9,318.17l1.56-.26,15.83,9.66c-3.98,4.59-5.35,10.77-2.06,16.83l-74.61,38.89c-3.92-2.33-7.52-4.14-12.51-5.05l5.12-27.15,65.42-32.97c.29.07.69.14,1.25.05Z"/>
    <path class="cls-3" d="M515.66,273.25l19.52,10.59c-3.19,4.34-3.24,9.04-.42,13.15l-52.48,28.82c-10.68-7.79-24.16-8.28-35.42-.92l-15.39-9.77,84.19-41.88Z"/>
    <path class="cls-11" d="M162.83,269.34l3.25,1.86c-1.09,2.24-3.08,2.42-5.03,3.14l-22.9,8.48c2.02,4.42,1.52,8.15-1.78,11.72l58.87,36.18c9.92-6.06,21.09-5.23,30.12.73l27.21-15.91,4.05,2.07-29.03,16.29c2.03,2.71,2.95,5.01,3.39,8.65l47.85,1.88c-2.77.9-6.06,2.95-7.97,2.78l-9.04-.77-31.08-.79c-5.48-.14-10.78,2.86-12.21,8.52-.42,1.66-4.93,2.31-6.75,1.78.21-1.16.66-2.22.56-3.14-.29-2.57-7.82-3.88-11.66-1.62-1.29.76-2.17,1.83-3.37,1.75-1.08-.07-3.96-1.34-3.55-2.44,1.5-4.02-.13-5.4-2.51-7.8-.83-.83-.96-4.03-2.33-3.4.5-2.21,1.73-3.9,3.52-6.34l-58.52-36.04c-12.1,6.5-28.61,1.62-29.01-8.31-.13-3.13,1.06-6.28,3.88-8.49,8.01-6.31,19.5-5.96,27.71.36l26.32-11.13Z"/>
    <path class="cls-11" d="M426.9,318.17c-.56.09-.96.03-1.25-.05.16-1.53,1.68-1.03,1.25.05Z"/>
    <path class="cls-14" d="M169.79,375.81l-32.9,13.47c2.73,4.51,1.93,9.4-.92,13.72,7.21,5.58,14.55,8.77,22.14,12.87l55.84,30.17c9.79-6.24,22.2-7.07,31.59.84l27.66-16.26,3.57,2.12c-1.26,2.02-3.41,2.84-5.48,3.93l-23.52,12.31c3.67,4.7,3.65,9.66,1.8,14.79l87.97,41.89c5.26-3.67,10.48-4.87,16.84-4.88l17.07-49.26,3.88-1.92-17.3,51.39,9.94,4.89,83.44-49.65c-3.33-5.3-3.37-11.16,1.25-15.58l-27.1-19.25,2.71-1.76,27.08,18.7c8.72-4.93,18.21-4.31,26.49,1.14l58.09-33.76c-2.86-4.54-2.52-8.93.89-12.8l-31.89-17.48,4.51-2.51c.6,1.56,1.91,2.25,3.44,3.11l25.84,14.62c8.32-4.7,18.25-4.98,25.76.58,3.17,2.35,4.83,5.86,4.73,9.33s-2.32,7.21-5.91,9.32c-7.92,4.65-17.57,3.7-25.39-1.23l-58.08,33.11c4.86,6.09,3.01,13.61-3.03,17.67-8.13,5.47-18.68,4.97-27.14-.77l-83.55,49.59c5.19,6.52,3.98,14.91-2.72,19.83-8.95,6.57-21.76,5.88-30.39-1.14-5.94-4.84-6.37-12.37-2.04-18.5l-87.41-41.86c-9.71,8.43-23.67,9.11-33.63,1.48-6.26-4.8-7.72-12.56-2.39-19.43l-78.16-42.78c-9.68,6.77-22.78,7.02-32.38.12-3.61-2.59-5.67-6.62-5.79-10.47-.11-3.91,1.71-7.98,5.2-10.78,10.26-8.23,25.13-7.1,34.99,1.68l28.37-11.1c1.32-.52,2.37-1.19,3.05-2.05,1.14.61,2.2,1.73,2.94,2.53Z"/>
    <path class="cls-6" d="M273.19,430.61l-27.66,16.26c-9.39-7.91-21.8-7.08-31.59-.84l-55.84-30.17c-7.59-4.1-14.93-7.29-22.14-12.87,2.85-4.32,3.65-9.22.92-13.72l32.9-13.47c1.94.31,3.76,1.13,6.06,2.37l97.35,52.44Z"/>
    <path class="cls-6" d="M371.45,451.51l-17.07,49.26c-6.36.01-11.57,1.21-16.84,4.88l-87.97-41.89c1.85-5.12,1.87-10.09-1.8-14.79l23.52-12.31c2.07-1.08,4.21-1.91,5.48-3.93l45.33,23.87c16.24,8.55,34.7,4.54,49.36-5.09Z"/>
    <path class="cls-3" d="M674.73,270.14c.14,5.5-4.97,13.18-9.59,15.59l-101.9,53.01c-66.04,34.36-130.81,69.43-195.14,106.71-14.14,8.19-30.31,11.47-45.38,3.38l-157.26-84.42L15.19,282.99c-3.8-2.06-5.34-4.72-6.87-7.73,1.93.82,6.01,2.22,6.76-.63.55-2.08.95-4.53,3.02-4.5,2.43.04,3.41,1.51,3.91,3.73l1.97,8.67c2.36,3.37,7.3,4.21,10.46,5.99l14.02,7.92c2.61,1.47,5.53,3.25,8.37.84,2.71-2.3,5.99-.03,8.51-.74,1.66-.47,2.65-5.08,5.77-3.22,1.36.81,4.05,3.93,1.52,4.94-1.22.46-4.89-1.05-5.64,1.36-.62,2,1.11,7.11,3.24,7.52,1.77-.29,3.3-1.1,4.76-.96,1.16.11,1.71,2.55,2.41,3.37,5.6,2.35,12.13,3.82,18.29,4.79,2.48.39,3.66-2.51,4.07-3.89.53-1.81-1.96-7.23-4.74-10.69-.84-1.05,1.21-3.35,2.3-3.46,1.51-.16,2.74,1.15,3.51,2.78l4.81,10.22c-2.41,2.64-3.76,5.65-4.63,9.61-.51,2.33,2.1,6.97,4.64,8.14,2.13.98,5.15,2.86,7,2.87,3.17.03,3.3,2.3,4.94,3.2l44.64,24.56c1.21.66,2.66.54,3.34.1.62-.41,1.32-2.42,2.04-2.51,2.34.07,2.19,4.13,2.1,5.91,3.76,3.73,10.08,5.65,14.79,8.18l45.59,24.55,97.74,52.82c2.06-3.02,3.83-4,6.85-3.1,2.17.64,3.5,2.73,4.38,5.25,6.79.81,14.24-.78,20.55-3.64-.39-1.31-1.38-3.67-.55-4.77,3.16-2.68,8.33-4.85,12.55-4.59,5.47.34,11.97-2.95,12.65-7.15,4.15.29,7.52-1.89,11.12-3.91l40.27-22.64,16.9-9.26,77.73-42.01c3.66-1.98,7.32-2.71,9.69-6.42,6.92-.27,11.13-5.12,16.85-7.51l54.36-28.44c2.66-1.39,4.21-2.22,7.18-3.72l49-24.69c1.15-.58,2.94-1.96,2.93-2.64l-.04-2.61,2.22-1.4c3.67-2.31-7.67-5.28-5.34-10.53,1.08-.92,3.54-1.8,2.81-3.87,3.12,2.93,4.66,6.81,4.77,11.09Z"/>
    <path class="cls-6" d="M425.56,421.38l27.1,19.25c-4.62,4.42-4.58,10.27-1.25,15.58l-83.44,49.65-9.94-4.89,17.3-51.39,50.23-28.2Z"/>
    <path class="cls-6" d="M508.95,375.42l31.89,17.48c-3.41,3.87-3.76,8.26-.89,12.8l-58.09,33.76c-8.28-5.45-17.77-6.06-26.49-1.14l-27.08-18.7,80.67-44.2Z"/>
    <g>
      <path class="cls-14" d="M64.35,318.37l4.24,2.32c-.52,1.02-1.16,1.52-2.25,2.12l-51.36,28.49c-5.48,3.04-8.23,9.65-7.75,15.2.5,5.78,3.82,10.77,9.44,13.94l118.15,66.62,127.11,71.77,60.55,34.49c15.33,8.73,31.7,8.24,46.93-.58l118.98-68.93,178.54-102.98c5.48-3.16,7.78-10.07,7.7-14.98-.1-5.7-3.36-11.09-8.6-14.13l-52.13-31.01c1.08-.8,3.96-2.71,5.59-1.78l50.55,28.81c7.82,4.46,11.25,13.26,10.9,21.47s-5.64,15.47-13.36,19.87l-46.42,26.44-4.92,2.87-91.2,52.3-3.6,2.08-100.97,58.22-3.93,2.19-49.23,28.48c-4.55,2.63-9.24,4.18-13.94,4.8l-3.62.48c-8.75,1.17-17.58-.56-25.77-5.14l-46.03-25.77-4.98-2.99-107.2-60.4-4.9-2.73-15.96-9.15-77.32-43.2-5.22-2.84-49.99-28.18c-7.35-4.14-11.1-11.43-11.39-18.96-.3-7.98,3.06-16.38,10.58-20.54l41.14-22.78,11.63-5.88Z"/>
      <path class="cls-7" d="M63.85,512.83l-49.79,30.56c-5.55,3.33-8.26,10.23-7.69,16.06.57,5.69,3.75,10.64,9.37,13.98l302.04,179.41c15.89,9.44,32.61,9.44,48.47-.27l70.04-42.9,230.35-136.27c5.58-3.3,8.08-10.16,7.91-15.46-.2-6.17-3.69-11.25-9.18-14.54l-44.32-26.57c-1.36-.82-2.18-1.54-2.73-3.06l5.02-2.79c.62,1.25,1.47,2.07,2.77,2.84l44.29,26.56c7.27,4.36,10.5,12.4,10.2,20.25-.27,7.06-3.47,14.75-10.66,18.94l-113.54,66.23-193.02,115.66c-16.12,9.66-34.53,5.33-49.55-3.57L10.79,578.33c-7.26-4.3-10.5-12.29-10.56-19.67-.06-7.27,3.08-15.03,9.96-19.13l48.82-29.46,4.84,2.75Z"/>
      <path class="cls-12" d="M342.62,657.71l1.87.25c10.16.39,18.93-3.96,27.72-9.25l31.16-18.77,16.76-9.99,101.61-58.76,144.68-82.92c5.46-3.13,8.35-9.71,8.45-14.72,2.35-.19,4.44.71,5.99,2.33-.47,9.06-5.41,15.52-13.41,20.06l-44.1,25.05-5.02,2.79-104.2,59.36-3.68,2.31-74.37,43.09-2.63,1.6-60.11,35.53c-4.83,2.86-9.07,5.97-14.06,7.2l-3.37.83c-13.11,3.23-25.54.21-37.33-6.48l-66.31-37.6-3.29-2.44-83.76-47.33-2.78-1.51-64.31-36.58-34.27-18.92-4.84-2.75-46.84-26.37c-7.7-4.33-11.01-11.76-11.08-20.13,1.86.27,3.2,1.11,4.23,2.75.09-1.98.81-2.6,1.41-3.41.62,6.25,3.84,11.91,10.11,15.47l303.97,172.41c7.29,4.13,14.09,5.89,21.81,6.93Z"/>
      <path class="cls-8" d="M67.61,417.55l-52.6,30.77c-4.56,2.61-6.34,7.56-7.51,11.83l-.76,2.76c-.6.82-1.32,1.43-1.41,3.41-1.04-1.64-2.37-2.48-4.23-2.75-.05-6.67,2.56-14.79,9.45-18.72l51.84-30.13,5.22,2.84Z"/>
      <path class="cls-8" d="M621.17,415.5l50.02,29.9c7.53,4.5,10.05,12.92,9.66,20.47-1.55-1.63-3.63-2.52-5.99-2.33.15-6.84-3.87-12.34-9.82-15.86l-48.79-29.3,4.92-2.87Z"/>
      <path class="cls-5" d="M160.89,469.9l-25.03,11.3c-7.91-5.89-18.61-5.88-26.36-.37-2.73,1.94-4.18,5.08-4.17,7.83s1.32,6.04,4,7.97c7.4,5.36,16.99,5.18,25.07,1.04l78.77,50.26c-5.88,6.12-5.09,14.57,1.32,19.59,9.61,7.53,23.37,6.99,32.98-.93l86.45,46.01c-4.92,6.8-3.34,14.7,3.34,19.14,8.01,5.32,18.97,5.54,27.04.16,6.54-4.37,8.22-12.61,3.31-19.08l75.2-43.96c8.96,7.21,21.39,7.9,30.5,1.01,6.31-4.77,7.32-13.5,1.57-19.3l69.86-51.1c8.11,3.81,16.98,4,23.98-1.24,3.01-2.25,4.67-5.97,4.44-9.3-.67-9.39-17.16-15.27-29.42-8.27l-18.67-10,91.2-52.3,48.79,29.3c5.95,3.52,9.97,9.03,9.82,15.86-.11,5.01-3,11.59-8.45,14.72l-144.68,82.92-101.61,58.76c-4.37-2.73-12.97,2.9-14.84,5.46-1.88,2.59-3.27,1.68-5.38,2.9l-32.94,19.14c-6.18,3.59-11.63,6.89-19.37,6.66-.8-.02-2.16.58-2.64.97-.81.67-1.04,2.03-.47,2.88l-1.87-.25c.26-.84.34-2.18-.13-2.74-.54-.63-2.25-1.41-3.08-1.34-4.71.39-16.88-6.57-23.83-10.55l-89.59-51.26-15.88-9.15-32.42-18.59-124.1-69.66-18.04-10.14c-2.15-1.21-4.65-2.85-6.17-4.96-6.55-1.83-12.75-4.41-18.15-8.98.84-2.33,1.61-3.82,1.53-5.94-1.6.3-3.48-.27-3.79-1.37-.38-1.33-.55-2.29-1.48-2.9,1.17-4.27,2.95-9.22,7.51-11.83l52.6-30.77,77.32,43.2,15.96,9.15Z"/>
      <path class="cls-8" d="M165.79,472.62c-1.69.25-3.26.79-5.01,1.52l-22.79,9.48c2.33,4.21,2.17,7.97-1.21,11.56l78.93,50.49c10.14-5.7,21.61-4.98,30.75,1.59l22.25-11.11c1.74-.87,3.47-1.44,4.28-3.14l4.98,2.99-28.9,13.86c1.39,4.48,1.23,9.05.59,14.26l86.73,45.9c4.51-2.94,8.35-4.1,13.49-4.74l-.11-38.37,3.62-.48-.22,38.94c4.99.93,8.62,2.38,12.48,4.85l75.18-44.03c-3.55-5.26-2.41-11.2,1.45-15.59l-25.71-17.45,3.93-2.19c.68,1.62,1.99,2.85,3.8,3.61l20.52,13.6c9.08-4.98,18.55-4.9,27.69-.21l69.46-50.62c-3.92-4.21-4.15-9.55-1.08-14.11l-19.43-10.49,3.6-2.08,18.67,10c12.26-7,28.75-1.13,29.42,8.27.24,3.33-1.42,7.05-4.44,9.3-7,5.24-15.88,5.04-23.98,1.24l-69.86,51.1c5.76,5.8,4.75,14.53-1.57,19.3-9.11,6.89-21.54,6.2-30.5-1.01l-75.2,43.96c4.91,6.48,3.23,14.71-3.31,19.08-8.07,5.39-19.03,5.17-27.04-.16-6.68-4.44-8.27-12.34-3.34-19.14l-86.45-46.01c-9.61,7.93-23.37,8.47-32.98.93-6.41-5.02-7.2-13.48-1.32-19.59l-78.77-50.26c-8.08,4.13-17.67,4.31-25.07-1.04-2.67-1.94-3.98-5.22-4-7.97s1.44-5.89,4.17-7.83c7.75-5.51,18.45-5.53,26.36.37l25.03-11.3,4.9,2.73Z"/>
      <path class="cls-5" d="M165.79,472.62l107.2,60.4c-.8,1.7-2.54,2.27-4.28,3.14l-22.25,11.11c-9.14-6.57-20.61-7.29-30.75-1.59l-78.93-50.49c3.38-3.59,3.54-7.35,1.21-11.56l22.79-9.48c1.75-.73,3.31-1.27,5.01-1.52Z"/>
      <path class="cls-5" d="M521.45,472.76l19.43,10.49c-3.08,4.55-2.85,9.9,1.08,14.11l-69.46,50.62c-9.14-4.7-18.61-4.77-27.69.21l-20.52-13.6c-1.81-.76-3.13-1.99-3.8-3.61l100.97-58.22Z"/>
      <path class="cls-5" d="M277.96,536.02l46.03,25.77c8.19,4.58,17.02,6.31,25.77,5.14l.11,38.37c-5.13.64-8.98,1.8-13.49,4.74l-86.73-45.9c.63-5.21.79-9.77-.59-14.26l28.9-13.86Z"/>
      <path class="cls-5" d="M353.38,566.45c4.69-.63,9.39-2.17,13.94-4.8l49.23-28.48,25.71,17.45c-3.86,4.4-5,10.34-1.45,15.59l-75.18,44.03c-3.86-2.46-7.49-3.92-12.48-4.85l.22-38.94Z"/>
      <path class="cls-2" d="M162.44,568.34l-27.3,13.95c-7.96-4.93-18.25-5.49-25.71.47-2.53,2.03-3.91,4.99-3.75,7.84.51,9.4,16.76,14.5,28.29,7.27l61.23,33.88c-4.36,5.55-3.44,12.24,1.85,16.24,8.25,6.24,19.68,5.8,28.11.04l102.31,57.15c-5.03,6.96-4.63,15.1,2.05,20.32,9.02,7.04,22.28,7.01,31.4,0,6.22-4.78,7.19-12.5,3.15-19.22l93.25-55.35c8.45,5.75,19.3,5.9,27.01.01,5.17-3.95,6.55-10.32,3.01-16.14l57.07-33.53c7.42,4.3,15.72,4.33,22.42.06,2.79-1.78,4.24-4.82,4.22-7.67s-1.69-5.65-4.55-7.39c-7.04-4.28-15.88-3.92-22.84.92l-7.88-3.22-19.18-8.75c-1.04-.48-1.76-1.08-2.46-2.1l104.2-59.36c.55,1.51,1.37,2.24,2.73,3.06l44.32,26.57c5.49,3.29,8.98,8.37,9.18,14.54.17,5.3-2.33,12.16-7.91,15.46l-230.35,136.27-70.04,42.9c-15.85,9.71-32.57,9.71-48.47.27L15.76,573.44c-5.62-3.34-8.81-8.29-9.37-13.98-.58-5.83,2.14-12.73,7.69-16.06l49.79-30.56,34.27,18.92,64.31,36.58Z"/>
      <path class="cls-7" d="M165.22,569.84c-.36,1.42-1.02,2.08-2.16,2.6l-26.12,12.07c2.32,4.16,1.91,7.4-.58,11.1l61.13,33.79c9.47-5.49,19.77-4.6,28.26.97.27.78.77,1.6,1.49,2.18,2.53,3.78,2.87,8.23-.11,13.02l102.76,57.03c5.35-2.9,10.26-4.79,16.44-4.75l9.59-34.16,3.37-.83-9.7,35.28c4.72,1.01,8.32,2.67,12.27,5.57l93.14-55.2c-3.51-4.93-3.24-10.11.84-14.57l-18.83-10.12c-1.81-.97-3.42-1.71-3.56-3.69l2.63-1.6,21.89,13.09c8.58-4.97,18.37-4.93,26.92.84l57.32-33.44c-2.07-3.76-1.74-6.56-.47-9.7l-6.99-3.06,1.01-2.29,7.88,3.22c6.96-4.84,15.81-5.2,22.84-.92,2.86,1.74,4.53,4.56,4.55,7.39s-1.43,5.89-4.22,7.67c-6.7,4.28-15.01,4.24-22.42-.06l-57.07,33.53c3.53,5.81,2.16,12.19-3.01,16.14-7.71,5.88-18.56,5.74-27.01-.01l-93.25,55.35c4.04,6.72,3.07,14.44-3.15,19.22-9.12,7.01-22.38,7.04-31.4,0-6.69-5.22-7.08-13.37-2.05-20.32l-102.31-57.15c-8.43,5.75-19.86,6.2-28.11-.04-5.28-4-6.21-10.69-1.85-16.24l-61.23-33.88c-11.53,7.23-27.78,2.12-28.29-7.27-.16-2.85,1.22-5.81,3.75-7.84,7.45-5.96,17.75-5.4,25.71-.47l27.3-13.95,2.78,1.51Z"/>
      <path class="cls-2" d="M355.92,663.69l-9.59,34.16c-6.18-.04-11.09,1.85-16.44,4.75l-102.76-57.03c2.98-4.79,2.64-9.25.11-13.02l22-10c1.45-.66,2.58-.96,3.04-2.94l66.31,37.6c11.79,6.68,24.22,9.71,37.33,6.48Z"/>
      <path class="cls-2" d="M433.45,620.13c.15,1.98,1.76,2.72,3.56,3.69l18.83,10.12c-4.08,4.46-4.35,9.64-.84,14.57l-93.14,55.2c-3.95-2.89-7.55-4.56-12.27-5.57l9.7-35.28c4.98-1.23,9.22-4.34,14.06-7.2l60.11-35.53Z"/>
      <path class="cls-2" d="M248.98,617.17c-.18.94-.74,1.76-1.88,2.32l-21.36,10.88c-8.49-5.57-18.78-6.46-28.26-.97l-61.13-33.79c2.49-3.7,2.91-6.94.58-11.1l26.12-12.07c1.14-.53,1.8-1.18,2.16-2.6l83.76,47.33Z"/>
      <path class="cls-2" d="M510.45,575.44c.81,2.11,2.5,2.22,4.07,2.84l20.23,7.99,6.99,3.06c-1.27,3.14-1.6,5.94.47,9.7l-57.32,33.44c-8.55-5.77-18.34-5.81-26.92-.84l-21.89-13.09,74.37-43.09Z"/>
      <path class="cls-13" d="M342.62,657.71c-7.72-1.04-14.52-2.8-21.81-6.93L16.84,478.37c-6.27-3.56-9.48-9.22-10.11-15.47l.76-2.76c.93.61,1.09,1.56,1.48,2.9.32,1.09,2.19,1.66,3.79,1.37.08,2.12-.69,3.6-1.53,5.94,5.39,4.57,11.59,7.15,18.15,8.98,1.52,2.1,4.02,3.75,6.17,4.96l18.04,10.14,124.1,69.66,32.42,18.59,15.88,9.15,89.59,51.26c6.95,3.98,19.12,10.94,23.83,10.55.83-.07,2.54.7,3.08,1.34.47.55.39,1.9.13,2.74Z"/>
      <path class="cls-13" d="M420.13,619.95l-16.76,9.99-31.16,18.77c-8.79,5.29-17.56,9.65-27.72,9.25-.57-.84-.34-2.21.47-2.88.48-.4,1.84-1,2.64-.97,7.74.23,13.19-3.07,19.37-6.66l32.94-19.14c2.11-1.23,3.5-.32,5.38-2.9,1.86-2.56,10.47-8.19,14.84-5.46Z"/>
      <path class="cls-5" d="M252.27,619.62c-.46,1.97-1.59,2.27-3.04,2.94l-22,10c-.72-.58-1.21-1.4-1.49-2.18l21.36-10.88c1.14-.55,1.7-1.38,1.88-2.32l3.29,2.44Z"/>
      <path class="cls-5" d="M514.13,573.13c.7,1.02,1.42,1.62,2.46,2.1l19.18,8.75-1.01,2.29-20.23-7.99c-1.57-.62-3.26-.73-4.07-2.84l3.68-2.31Z"/>
    </g>
    <path class="cls-1" d="M372.81,392.31c1.15,2.87.19,6.09-1.25,8.94-1.22-3.59-8.94-4.51-15.17-3.54-13.39,2.08-23.82-3.17-25.73,2.88l13.34,4.33c3.52,1.14,8.13-2.24,12.08-.04.49,1.05.73,2.51,1,4.39,7.53-.57,9.93-5.76,13.94-6.96-5.66,11.13-28.12,13.6-38.53,2.16-4.09-4.5-4.63-10.15-1.85-14.99,2.41.47-2.39,5.64,1.96,7.8,4-8.35,13.32.97,22.67-1.52,5.6-1.49,10.7-2.75,15.94-.1.5-2.02.95-2.62,1.61-3.34ZM344.81,408.16c0-.61-.5-1.11-1.11-1.11s-1.11.5-1.11,1.11.5,1.11,1.11,1.11,1.11-.5,1.11-1.11Z"/>
    <path class="cls-11" d="M371.56,401.24l-.54,1.06c-4.01,1.2-6.42,6.39-13.94,6.96-.27-1.87-.51-3.34-1-4.39-3.95-2.2-8.55,1.18-12.08.04l-13.34-4.33c1.91-6.05,12.34-.81,25.73-2.88,6.23-.97,13.95-.05,15.17,3.54Z"/>
    <path class="cls-1" d="M230.74,345.65c-3.63,8.34-11.82,12.67-21.07,12.5-8.1-.15-15.63-3.03-19.87-10.07-1.63-2.71-1.48-6.12-.88-8.78,1.36-.63,1.5,2.57,2.33,3.4,2.38,2.4,4,3.78,2.51,7.8-.41,1.1,2.48,2.37,3.55,2.44,1.2.07,2.07-.99,3.37-1.75,3.83-2.26,11.37-.95,11.66,1.62.1.92-.35,1.98-.56,3.14,1.82.53,6.33-.12,6.75-1.78,1.43-5.66,6.73-8.66,12.21-8.52Z"/>
    <circle class="cls-11" cx="343.69" cy="408.16" r="1.11"/>
    <ellipse class="cls-1" cx="210.06" cy="341.71" rx="20.91" ry="15.1"/>
    <ellipse class="cls-1" cx="281.57" cy="349.58" rx="20.91" ry="15.1"/>
  </g>
  <g>
    <path class="cls-10" d="M674.7,174.93c2.36,1.21,1.93,4.29,6.23,3.54-.7,7.77-3.75,14.49-10.94,18.09l-52.23,26.13-5.59,2.82-93.27,46.19c-1.16.58-1.9,1.84-3.25,1.56l-84.19,41.88c-1.61.8-2.8.87-3.01,2.78l-1.56.26c.43-1.08-1.09-1.57-1.25-.05l-65.42,32.97-3.62.85c-14.31,3.36-27.69,2.33-40.57-4.2l-59.42-30.13-4.05-2.07-86.49-44.34-3.25-1.86-83.25-43.04c-2.44-1.26-5.68-1.78-7.14-3.02-1.59-1.35-2.84-1.75-4.47-2.6l-56.41-29.27C3.3,187.12-.27,178.86.02,169.88c.26.16.82.18,1.09.39.33.26.7.95.93,1.61l.62,1.8c.35,1,2.31.35,2.04-.36-.81-2.14.66-3.47,1.05-4.49.74,8.78,5.83,13.89,13.65,17.93l150.05,77.6,148.06,75.85c16.11,8.25,32.92,7.84,48.97-.34l30.47-15.52,75.38-37.62,85.45-42.54,104.63-52.15c7.09-3.54,12.51-9.43,12.32-17.13Z"/>
    <path class="cls-4" d="M680.94,178.47c-4.3.74-3.87-2.33-6.23-3.54-.17-7.06-4.75-12.28-11.46-15.63L371.36,13.5c-14.87-7.43-30.6-10.82-46.1-3.59L75.3,126.5l-59.6,28.61c-5.8,2.78-7.98,8.46-9.97,13.72-.39,1.02-1.86,2.36-1.05,4.49.27.71-1.69,1.36-2.04.36l-.62-1.8c-.23-.66-.59-1.35-.93-1.61-.27-.21-.83-.23-1.09-.39.29-9.22,5.72-16.43,14.08-20.44l73.02-34.92L318.78,6.44c13.51-6.3,31.29-9.51,45.54-2.41l304.49,151.66c8.88,4.42,12.91,14.03,12.12,22.78Z"/>
    <path class="cls-9" d="M674.7,174.93c.19,7.7-5.23,13.59-12.32,17.13l-104.63,52.15-85.45,42.54-75.38,37.62-30.47,15.52c-16.05,8.18-32.86,8.59-48.97.34l-148.06-75.85L19.38,186.75c-7.82-4.04-12.9-9.15-13.65-17.93,1.99-5.26,4.17-10.93,9.97-13.72l59.6-28.61L325.26,9.91c15.5-7.23,31.24-3.84,46.1,3.59l291.88,145.79c6.72,3.36,11.29,8.58,11.46,15.63ZM336.17,278.5c10.46,7.18,25.02,7.24,35.58,1.01,7.93-4.68,11.37-13.01,7.44-21.57l81.6-36.99c9.28,7.32,21.87,8.44,31.61,2.03,6.94-4.56,8.55-12.86,3.42-19.94l47.76-26.96c8.66,4.96,19.02,5.54,27.19.27,3.88-2.5,6.01-6.45,5.76-10.55-.23-3.78-2.38-7.26-6.02-9.57-8.15-5.18-18.43-5.02-27.13.16l-57.48-25.69c1.71-5.01.89-9.25-2.78-12.03-7.16-5.42-16.77-5.88-24.68-1.85-5.51,2.8-7.42,8.29-4.98,14.12l-44.99,21.93c-7.94-6.84-17.3-9.22-27.74-8.3l-29.76-57.58c4.42-1.97,8.25-3.95,10.9-7.7,4.75-6.74,2.43-15.26-4.65-19.95-10.83-7.17-26.02-7.09-36.6.41-6.71,4.76-8.42,12.41-4.02,19.37l-109.2,43c-10.74-16.98-40.37-16.47-51.67-2.42-6.19,7.69-3.96,17.31,4.59,23.14l-51.38,22.81c-6.5-3.89-14.22-4.33-20.41-.76-2.61,1.51-4.41,4.23-4.43,6.76-.06,7.31,11.84,11.53,22.1,7.04,4.37-1.91,5.28-6.13,5.09-10.65l52.55-23.05c9.27,4.32,18.74,4.62,28.75,1.8l32.74,43.98c-9.92,4.03-15.4,13.82-11.11,22.95,6.72,14.31,33.65,17.81,48.16,5.49l70.07,35.41c-6.21,8.1-4.8,18.01,3.72,23.85Z"/>
    <path class="cls-4" d="M336.17,278.5c-8.52-5.85-9.93-15.75-3.72-23.85l-70.07-35.41c-14.51,12.32-41.44,8.82-48.16-5.49-4.29-9.13,1.19-18.92,11.11-22.95l-32.74-43.98c-10.01,2.82-19.48,2.52-28.75-1.8l-52.55,23.05c.19,4.52-.72,8.74-5.09,10.65-10.26,4.49-22.16.26-22.1-7.04.02-2.53,1.83-5.26,4.43-6.76,6.18-3.57,13.9-3.13,20.41.76l51.38-22.81c-8.55-5.82-10.78-15.44-4.59-23.14,11.29-14.04,40.93-14.56,51.67,2.42l109.2-43c-4.4-6.96-2.69-14.61,4.02-19.37,10.57-7.51,25.77-7.58,36.6-.41,7.08,4.69,9.4,13.21,4.65,19.95-2.65,3.75-6.48,5.73-10.9,7.7l29.76,57.58c10.44-.92,19.79,1.46,27.74,8.3l44.99-21.93c-2.44-5.84-.53-11.32,4.98-14.12,7.91-4.03,17.52-3.57,24.68,1.85,3.67,2.78,4.49,7.02,2.78,12.03l57.48,25.69c8.7-5.18,18.98-5.34,27.13-.16,3.63,2.31,5.79,5.79,6.02,9.57.25,4.11-1.88,8.05-5.76,10.55-8.17,5.27-18.53,4.69-27.19-.27l-47.76,26.96c5.13,7.08,3.52,15.38-3.42,19.94-9.74,6.41-22.33,5.29-31.61-2.03l-81.6,36.99c3.93,8.55.49,16.89-7.44,21.57-10.56,6.23-25.12,6.17-35.58-1.01ZM280.8,148.19l44.3-62.09-6.46-4.06-109.9,42.84c.15,4.32-.14,7.45-1.08,11.04l73.14,12.27ZM357.07,162.78c1.99-9.78,10.01-15.48,19.82-17.53l-29.46-57.23c-6.45,1.15-12.2.83-18.99-.81l-41.21,58.43c-.7,1-1.2,2.29-.95,2.95.16.42,1.31,1.23,2.04,1.37l68.76,12.82ZM475.48,195.24l-5.94-57.14c-5.12,0-9.25-1.88-13.62-4.29l-45.36,21.72c4.13,7.06,3.39,13.64-1.44,19.62l52.07,25.54c4.48-2.59,8.95-4.02,14.3-5.45ZM541.1,173.62c-6.81-8.28,1.27-13.92-3.12-15.88l-54.2-24.2c-3.43,2.22-6.4,3.44-10.56,4.65l5.81,57.55c5.46.54,9.88,2.16,14.54,4.96l47.52-27.07ZM252.18,188.94l25.88-37.21-72.23-13.03c-3,2.82-5.66,4.63-9.67,6.86l32.62,43.77c8.07-2.73,15.37-2.14,23.4-.4ZM359.77,174.05c-.83-3.58-1.78-5.54-3.25-7.86l-73.94-13.66-27.38,38.13c5.95,3.03,9.01,7.15,12.38,12.37l92.19-28.98ZM358.05,245.43l19.81-62.05c-6.12-.8-10.52-3.2-15.18-6.96l-95.23,30.34c-.1,3.87-1.15,6.42-3.09,9.69l70.42,35.42c6.97-4.99,14.37-6.45,23.27-6.44ZM458.48,218.17c-2.34-5.79-2.32-9.79.9-14.58l-52.78-25.94c-7.72,5.5-16.13,7.01-25.27,6.57l-19.3,61.96c6.64,1.57,11.09,4.41,15.48,8.81l80.96-36.83Z"/>
    <path class="cls-9" d="M358.05,245.43c-8.9,0-16.31,1.46-23.27,6.44l-70.42-35.42c1.94-3.27,2.99-5.81,3.09-9.69l95.23-30.34c4.66,3.75,9.07,6.16,15.18,6.96l-19.81,62.05Z"/>
    <path class="cls-9" d="M458.48,218.17l-80.96,36.83c-4.39-4.4-8.85-7.24-15.48-8.81l19.3-61.96c9.15.44,17.55-1.07,25.27-6.57l52.78,25.94c-3.22,4.79-3.24,8.79-.9,14.58Z"/>
    <path class="cls-9" d="M357.07,162.78l-68.76-12.82c-.73-.14-1.88-.94-2.04-1.37-.25-.67.25-1.96.95-2.95l41.21-58.43c6.8,1.64,12.54,1.96,18.99.81l29.46,57.23c-9.81,2.04-17.83,7.75-19.82,17.53Z"/>
    <path class="cls-9" d="M280.8,148.19l-73.14-12.27c.94-3.59,1.24-6.72,1.08-11.04l109.9-42.84,6.46,4.06-44.3,62.09Z"/>
    <path class="cls-9" d="M475.48,195.24c-5.36,1.43-9.82,2.87-14.3,5.45l-52.07-25.54c4.83-5.98,5.58-12.56,1.44-19.62l45.36-21.72c4.38,2.41,8.5,4.28,13.62,4.29l5.94,57.14Z"/>
    <path class="cls-9" d="M541.1,173.62l-47.52,27.07c-4.66-2.8-9.08-4.42-14.54-4.96l-5.81-57.55c4.16-1.21,7.13-2.44,10.56-4.65l54.2,24.2c4.39,1.96-3.69,7.61,3.12,15.88Z"/>
    <path class="cls-9" d="M359.77,174.05l-92.19,28.98c-3.38-5.22-6.43-9.34-12.38-12.37l27.38-38.13,73.94,13.66c1.47,2.32,2.42,4.28,3.25,7.86Z"/>
    <path class="cls-9" d="M252.18,188.94c-8.03-1.74-15.33-2.33-23.4.4l-32.62-43.77c4.01-2.23,6.67-4.05,9.67-6.86l72.23,13.03-25.88,37.21Z"/>
  </g>
</svg>